<?xml version="1.0" encoding="utf-8"?>
<!-- Generator: Adobe Illustrator 20.1.0, SVG Export Plug-In . SVG Version: 6.00 Build 0)  -->
<svg version="1.1" id="Layer_1" xmlns="http://www.w3.org/2000/svg" xmlns:xlink="http://www.w3.org/1999/xlink" x="0px" y="0px"
	 viewBox="0 0 329 52.3" style="enable-background:new 0 0 329 52.3;" xml:space="preserve">
<style type="text/css">
	.st0{fill:#FFFFFF;}
</style>
<path class="st0" d="M70.3,6.3l-3.8,3.9l-3.9-3.7l3.9-4.2L70.3,6.3 M93.3,15.7c-0.2,2.6-2.2,5.3-5,5.3c-2.6,0-4.2-1.6-5.1-3.5
	l-0.3,0.2V36l5.1,3.1l2.8-2.9l0.4,0.4l-6.7,6.9l-9.3-5.6v-0.2c1-0.3,1.4-1.3,1.4-2.8V20.8c3.9-2,8.2-4.7,10.8-6.6
	c0.5,0.8,1.7,1.9,3.2,1.9c1.2,0,2.2-0.3,2.7-0.6L93.3,15.7L93.3,15.7z M74.4,37.8l-5.6,5.8c-3.1-1.1-4.9-2.6-4.9-6.5V19.9l-1.7-1.2
	l-1.6,1.6l-0.4-0.4l5.5-5.7l5.8,3.8v0.1c-0.9,0.5-1.3,1-1.3,2.9v15.3c0,1.3,0.8,2.6,2.2,2.8l1.7-1.7L74.4,37.8L74.4,37.8z
	 M61.4,37.9l-5.5,5.6c-2.9-0.9-4.8-2.7-4.8-6.3V21.1l-3.5-2.4l-2,2.1v17.5l2,1.3l-4.6,4l-5.2-4.3v-0.1c0.9-0.2,1.4-1,1.4-3V6.3
	c0-2.2-0.4-2.8-0.8-3.6l0.3-0.1c1,0.8,1.6,1.5,1.8,3h0.1c1.4-2.3,3.2-3.9,6.5-4.3l0.1,0.2c-0.9,1.2-1.7,2.4-1.7,4.4v14.2l5.4-5.7
	c2,1.3,5.7,4,7.8,5.3v0.1c-0.8,0.3-1.3,0.9-1.3,2.8v13.2c0,1.9,0.5,2.6,2,3.4l1.6-1.6L61.4,37.9L61.4,37.9z M160.1,19.7
	c-0.9,0.4-1.4,0.9-1.4,3v14.1c-2.6,1.1-8.5,4.5-11.4,6.8c-3.2-2.1-4.8-3.3-8.1-5.4v-0.1c0.9-0.4,1.4-0.9,1.4-3.1V21
	c4-1.9,8.3-4.6,11.4-6.9c1.9,1.3,6,3.9,8.2,5.4L160.1,19.7L160.1,19.7z M152.4,39.5V21.4c-1.5-0.9-3.9-2.8-4.9-3.5l-0.6,0.4v18.2
	c0.7,0.5,3.2,2.2,4.8,3.4L152.4,39.5L152.4,39.5z M137.2,41.5c0,1.7-2.4,3.5-5,5.6c-3.4,2.8-5.2,4.1-5.2,4.1c-1.7-1-2.7-1.2-5.2-1.2
	c-3.2,0-4.9,0.3-7.2,1.2l-0.1,0c1.8-3.3,5.3-6.1,10.3-6.1c2.2,0,4.7,0.9,6.4,2c0.4-0.3,1.8-1.3,1.8-2c0-2.2-4.2-2-4.8-6.1l-4.7,4.8
	c-5.5-3.5-8.6-5.5-8.6-5.5v-0.2c1.1-0.5,1.3-1,1.3-3.7V21c4.6-2.4,8.9-4.9,11.5-6.9l8.1,5.4v0.1c-1,0.5-1.4,1-1.4,3.4v12.5
	C134.7,38.5,137.2,38.8,137.2,41.5L137.2,41.5z M128.3,38.1V21.3c-2.4-1.5-4.8-3.4-4.8-3.4l-0.7,0.4v18l4.4,3L128.3,38.1L128.3,38.1
	z M113.9,37.9l-5.5,5.6c-2.5-0.8-4.7-2.2-4.8-5.7l-6.2,5.7c-3.1-1.3-5.2-4.1-5.2-7.5c0-4.7,3.8-7.1,7.2-8.3v0
	c-3-1.5-5.4-4.2-6.1-7.5l9.6-5.9l8.6,5.8v0.1c-1,0.4-1.5,1-1.5,2.9v12.8c0,1.4,0.6,3,2.1,3.4l1.6-1.6L113.9,37.9L113.9,37.9z
	 M103.5,26.7v-5.2l-5.4-3.7l-0.7,0.4c0.2,3.1,0.7,7.1,2.7,9.2C100.9,27.1,102.7,26.8,103.5,26.7L103.5,26.7z M103.5,37.1v-9.8
	c-3.8,0.5-5.9,3.1-5.9,6.5c0,2.8,1,4.5,3.5,5.5L103.5,37.1L103.5,37.1z M37.4,2.6c-0.2,3.8-2.8,7.3-7.6,7.3c-0.6,0-1.2-0.1-1.7-0.2
	v30c3.1-0.4,5.8-1.7,8.4-3.5l0.2,0.7c-2.8,3.3-8.2,8.7-16.4,8.7C9.1,45.6,0.9,38,0.9,25c0-11.9,9.8-18.6,16.2-21l0.5,0.3
	c-6,4-9.3,8.8-9.3,17.2c0,7.4,2.7,12.7,6.7,15.8l1.4-0.9v-23c0-2.1-0.3-2.8-1.3-3.1V10c4-2,10.4-5.5,13.9-8.2
	c1.1,1.3,2.5,1.8,4.1,1.8c1.9,0,3.1-0.7,3.9-1.3L37.4,2.6L37.4,2.6z M27.4,39.9V9.5c-1.6-0.6-2.7-1.9-3.7-3.3l-0.2,0.1v26.1
	l-7.9,5.3c2.7,1.9,6.7,2.2,10.7,2.2C26.7,39.9,27.1,39.9,27.4,39.9L27.4,39.9z M307.7,38l-5.5,5.6c-3.5-1.1-4.9-3.2-4.9-6.4V21
	l-2.9-2.1l-2.6,2.7v16.9l2.1,1.3l-4.6,4l-5.1-4.3v-0.1c1.1-0.5,1.4-1.1,1.4-3.1V21.7c0-1.6-0.8-2.8-2.3-3l-1.7,1.7l-0.4-0.4l5.6-5.7
	c3.3,0.8,5.1,3,5.1,6.3l6-6.3c2,1.5,4.9,3.5,7.1,4.8v0.1c-0.9,0.4-1.2,1-1.2,2.9v13.8c0,1.9,0.6,2.7,2.1,3.3l1.6-1.6L307.7,38
	L307.7,38z M282.3,38.1l-5.4,5.6c-2.7-0.5-5-3-5-5.7l-6.4,5.7c-2.5-1.7-4.8-3.3-6.9-4.5V39c1.2-0.6,1.4-1,1.4-3.2V21.5
	c0-1.5-0.7-2.4-2-2.8l-1.5,1.6l-0.4-0.4l5.4-5.6c2.7,0.9,4.9,3,4.9,6.3v16.7l3,2l2.5-2.3V19.6l-1.8-1.3l4.4-4l5.1,4.1v0.1
	c-1,0.5-1.3,1-1.3,2.8v14.2c0,2.2,0.3,3,2.1,3.8l1.4-1.6L282.3,38.1L282.3,38.1z M229.4,6.4l-3.8,3.9l-3.9-3.7l3.9-4.1L229.4,6.4
	 M233.5,37.9l-5.6,5.8c-3.1-1.1-4.9-2.6-4.9-6.5V20l-1.7-1.2l-1.6,1.6l-0.4-0.4l5.5-5.7l5.8,3.8v0.1c-0.9,0.5-1.3,0.9-1.3,2.2v15.9
	c0,1.3,0.8,2.6,2.2,2.8l1.7-1.7L233.5,37.9L233.5,37.9z"/>
<path class="st0" d="M219.9,16.1c-0.3,2.2-2,5.1-4.8,5.1c-1.8,0-3.2-1-3.9-2.2l-0.5,0.5c0,0.2,0,0.8,0,1v16l4.8,2.7l1.6-1.7l0.4,0.4
	l-5.7,5.8l-8.7-5.5V38c1-0.4,1.3-1,1.3-2.5V22.2c0-2.2-0.5-3.2-2.3-3.6l-1.7,1.7l-0.4-0.4l5.5-5.7c2.7,0.7,4.5,2.3,4.9,4.5l4.3-4.5
	c0.8,1.1,1.8,1.9,3,1.9c0.8,0,1.4-0.1,1.9-0.4L219.9,16.1L219.9,16.1z"/>
<path class="st0" d="M203.4,2.4c-0.6,4.8-2.6,9.1-7.7,9.1c-0.6,0-1.5-0.1-1.9-0.1V40c3.1-0.4,6.7-1.9,8.2-3.1l0.2,0.6
	c-2.3,3.3-8.8,8.5-16.8,8.5c-10.1,0-17.9-6.6-17.9-17.4c0-9.2,7.6-15.9,12.6-17.7l0.4,0.2c-3.5,3.2-5.9,7.5-5.9,14.3
	c0,5.7,2.2,9.2,5.5,12l1.9-1V18.9c0-1.9-0.6-2.5-1.3-2.6v-0.2l8.4-4.4v21.7l-8.5,4.3c2.3,1.8,5.9,2.7,9.3,2.7c1.2,0,1.7,0,3.1-0.3
	V11.4c-6.3-0.5-13-3.2-18.1-3.2c-3.6,0-6.3,1.5-6.3,4.2c0,1.7,1.3,2.4,2.1,2.8l-0.7,0.4c-1.5-0.7-3.4-2.4-3.4-5.9
	c0-5.1,4.1-8.5,9.7-8.5c7.7,0,14.9,4.1,21.7,4.1c2.1,0,4-1.1,5-3.1L203.4,2.4L203.4,2.4z M327.4,22.6c-3.6,2.2-8,5.1-11.3,7.5v6.2
	l5.4,3l3-3.1l0.4,0.3l-6.9,7.2l-9.6-5.8v-0.1c1-0.3,1.5-0.9,1.5-3V21.1c3.9-1.7,8-4.6,11-6.9L327.4,22.6L327.4,22.6z M321.5,25.6
	c-0.9-1.3-3.8-5.6-5.1-7.5l-0.3,0.2v11L321.5,25.6L321.5,25.6z M255.4,19.8c-1.1,0.4-1.3,1.3-1.3,2.7V37c-2.6,1.1-8.5,4.3-11.5,6.7
	c-2.1-1.5-5.5-3.8-8.2-5.4v-0.1c1.2-0.5,1.4-1.2,1.4-3.5V6.6c0-2-0.4-3-0.8-3.8l0.3-0.1c0.9,0.8,1.5,1.7,1.8,3h0.1
	c1.4-2.3,3.2-3.8,6.6-4.3l0,0.3c-0.9,1.2-1.6,2.2-1.6,4.4V20l5.4-5.7c1.9,1.4,5.7,4.1,7.8,5.4L255.4,19.8L255.4,19.8z M247.7,39.6
	V21.2l-3.5-2.4l-2,2v15.5l4.8,3.5L247.7,39.6L247.7,39.6z"/>
</svg>
